<svg xmlns="http://www.w3.org/2000/svg" viewBox="0 0 148 148" width="148" height="148"><rect width="148" height="148" rx="34" fill="#10241B"/><g transform="translate(24 24) scale(0.8333)"><path d="M18 52h84a10 10 0 0 1 10 10v30a10 10 0 0 1-10 10H52l-18 14v-14H18a10 10 0 0 1-10-10V62a10 10 0 0 1 10-10z" fill="#B8F2D0"/><polygon points="30,44 26,14 46,28 60,8 74,28 94,14 90,44" fill="#FFFFFF" transform="rotate(-8 60 30)"/><circle cx="40" cy="77" r="6" fill="#10241B"/><circle cx="60" cy="77" r="6" fill="#10241B"/><circle cx="80" cy="77" r="6" fill="#10241B"/></g></svg>